<svg width="24" height="24" viewBox="0 0 24 24" fill="none" xmlns="http://www.w3.org/2000/svg">
<path d="M12.7071 17.2929C13.0976 17.6834 13.0976 18.3166 12.7071 18.7071C12.3166 19.0976 11.6834 19.0976 11.2929 18.7071L5.29289 12.7071C4.91431 12.3285 4.90107 11.7189 5.26285 11.3243L10.7628 5.32428C11.136 4.91716 11.7686 4.88965 12.1757 5.26285C12.5828 5.63604 12.6103 6.26861 12.2372 6.67572L7.38414 11.9699L12.7071 17.2929Z" fill="#C1C2C4"/>
<path opacity="0.3" d="M19.7071 17.2929C20.0976 17.6834 20.0976 18.3166 19.7071 18.7071C19.3166 19.0976 18.6834 19.0976 18.2929 18.7071L12.2929 12.7071C11.9143 12.3285 11.9011 11.7189 12.2628 11.3243L17.7628 5.32428C18.136 4.91716 18.7686 4.88965 19.1757 5.26285C19.5828 5.63604 19.6103 6.26861 19.2372 6.67572L14.3841 11.9699L19.7071 17.2929Z" fill="#C1C2C4"/>
</svg>
