<svg width="24" height="24" viewBox="0 0 24 24" fill="none" xmlns="http://www.w3.org/2000/svg">
<g id="Name=2 User">
<g id="2 User">
<path id="Fill 1" d="M9.34933 14.8577C5.38553 14.8577 2 15.47 2 17.9174C2 20.3666 5.364 21 9.34933 21C13.3131 21 16.6987 20.3877 16.6987 17.9404C16.6987 15.4911 13.3347 14.8577 9.34933 14.8577Z" fill="white"/>
<path id="Fill 3" opacity="0.4" d="M9.34935 12.5248C12.049 12.5248 14.2124 10.4062 14.2124 7.76241C14.2124 5.11865 12.049 3 9.34935 3C6.65072 3 4.48633 5.11865 4.48633 7.76241C4.48633 10.4062 6.65072 12.5248 9.34935 12.5248Z" fill="white"/>
<path id="Fill 5" opacity="0.4" d="M16.1738 7.84873C16.1738 9.19505 15.7609 10.4513 15.0368 11.4948C14.9614 11.6021 15.028 11.7468 15.1591 11.7698C15.3411 11.7995 15.528 11.8177 15.7188 11.8216C17.617 11.8704 19.3205 10.6736 19.7912 8.87116C20.4888 6.19674 18.4419 3.79541 15.8342 3.79541C15.5515 3.79541 15.2804 3.82416 15.0162 3.87686C14.98 3.88453 14.9409 3.90177 14.9213 3.93244C14.8959 3.97172 14.9145 4.02251 14.9399 4.05605C15.7237 5.13214 16.1738 6.44205 16.1738 7.84873Z" fill="white"/>
<path id="Fill 7" d="M21.7794 15.1694C21.4321 14.444 20.5935 13.9467 19.3176 13.7023C18.7158 13.5586 17.0857 13.3545 15.57 13.3832C15.5475 13.3861 15.5348 13.4014 15.5328 13.411C15.5299 13.4263 15.5368 13.4493 15.5661 13.4656C16.2667 13.8049 18.9741 15.2805 18.6336 18.3929C18.619 18.5289 18.7295 18.6439 18.8675 18.6248C19.5338 18.5318 21.2481 18.1706 21.7794 17.0475C22.074 16.4534 22.074 15.7635 21.7794 15.1694Z" fill="white"/>
</g>
</g>
</svg>
